<svg width="20" height="20" viewBox="0 0 20 20" fill="none" xmlns="http://www.w3.org/2000/svg">
<path d="M18.4211 16.4706C18.8265 16.4708 19.2164 16.6454 19.5099 16.9581C19.8033 17.2709 19.9779 17.6978 19.9974 18.1505C20.0169 18.6032 19.8798 19.0469 19.6146 19.3896C19.3493 19.7324 18.9762 19.948 18.5726 19.9918L18.4211 20H1.57895C1.17346 19.9998 0.783584 19.8252 0.490119 19.5125C0.196654 19.1997 0.0220926 18.7728 0.00260604 18.3201C-0.0168805 17.8674 0.120202 17.4237 0.385448 17.0809C0.650694 16.7382 1.02377 16.5226 1.42737 16.4788L1.57895 16.4706H18.4211ZM18.4211 8.23529C18.8398 8.23529 19.2414 8.42122 19.5375 8.75216C19.8336 9.08311 20 9.53197 20 10C20 10.468 19.8336 10.9169 19.5375 11.2478C19.2414 11.5788 18.8398 11.7647 18.4211 11.7647H1.57895C1.16018 11.7647 0.758573 11.5788 0.462463 11.2478C0.166353 10.9169 0 10.468 0 10C0 9.53197 0.166353 9.08311 0.462463 8.75216C0.758573 8.42122 1.16018 8.23529 1.57895 8.23529H18.4211ZM18.4211 0C18.8398 0 19.2414 0.185924 19.5375 0.51687C19.8336 0.847817 20 1.29668 20 1.76471C20 2.23274 19.8336 2.6816 19.5375 3.01254C19.2414 3.34349 18.8398 3.52941 18.4211 3.52941H1.57895C1.16018 3.52941 0.758573 3.34349 0.462463 3.01254C0.166353 2.6816 0 2.23274 0 1.76471C0 1.29668 0.166353 0.847817 0.462463 0.51687C0.758573 0.185924 1.16018 0 1.57895 0H18.4211Z" fill="#C9A24D"/>
</svg>
