<svg width="26" height="32" viewBox="0 0 26 32" fill="none" xmlns="http://www.w3.org/2000/svg">
<path d="M12.6668 19C16.1597 19 19.0002 16.1595 19.0002 12.6666C19.0002 9.17381 16.1597 6.33331 12.6668 6.33331C9.174 6.33331 6.3335 9.17381 6.3335 12.6666C6.3335 16.1595 9.174 19 12.6668 19ZM12.6668 9.49998C14.4132 9.49998 15.8335 10.9202 15.8335 12.6666C15.8335 14.4131 14.4132 15.8333 12.6668 15.8333C10.9204 15.8333 9.50016 14.4131 9.50016 12.6666C9.50016 10.9202 10.9204 9.49998 12.6668 9.49998Z" fill="#0E4F4F"/>
<path d="M11.7485 31.3722C12.0166 31.5631 12.3376 31.6657 12.6668 31.6657C12.996 31.6657 13.317 31.5631 13.5851 31.3722C14.0665 31.0317 25.3794 22.8633 25.3335 12.6667C25.3335 5.68258 19.6509 0 12.6668 0C5.68272 0 0.000139393 5.68258 0.000139393 12.6587C-0.0457773 22.8633 11.2671 31.0317 11.7485 31.3722ZM12.6668 3.16667C17.9061 3.16667 22.1668 7.42742 22.1668 12.6746C22.2001 19.7014 15.2191 26.011 12.6668 28.0804C10.1161 26.0094 3.13356 19.6982 3.16681 12.6667C3.16681 7.42742 7.42756 3.16667 12.6668 3.16667Z" fill="#0E4F4F"/>
</svg>
