<svg width="30" height="30" viewBox="0 0 30 30" fill="none" xmlns="http://www.w3.org/2000/svg">
<path d="M21.2498 2.49977C22.9059 2.50473 24.493 3.16484 25.664 4.33595C26.8351 5.50707 27.4953 7.09401 27.5002 8.75021V21.2498C27.4953 22.906 26.8351 24.493 25.664 25.664C24.493 26.8352 22.9059 27.4952 21.2498 27.5003H8.7502C7.09402 27.4952 5.50706 26.8352 4.33595 25.664C3.16483 24.493 2.50472 22.906 2.49976 21.2498V8.75021C2.50472 7.09401 3.16483 5.50707 4.33595 4.33595C5.50706 3.16484 7.09402 2.50473 8.7502 2.49977H21.2498ZM21.2498 0H8.7502C3.9375 0 0 3.9375 0 8.75021V21.2498C0 26.0625 3.9375 30 8.7502 30H21.2498C26.0625 30 30 26.0625 30 21.2498V8.75021C30 3.9375 26.0625 0 21.2498 0Z" fill="white"/>
<path d="M23.1272 8.75072C22.7564 8.75072 22.3939 8.64074 22.0856 8.43473C21.7773 8.22869 21.537 7.93586 21.395 7.59325C21.2531 7.25063 21.2161 6.87364 21.2884 6.50992C21.3607 6.1462 21.5393 5.81211 21.8016 5.54989C22.0637 5.28767 22.3978 5.10909 22.7615 5.03675C23.1253 4.9644 23.5022 5.00152 23.8449 5.14344C24.1874 5.28535 24.4803 5.52568 24.6864 5.83403C24.8923 6.14236 25.0022 6.50487 25.0022 6.87572C25.0028 7.1221 24.9547 7.36614 24.8607 7.59387C24.7666 7.8216 24.6285 8.02851 24.4543 8.20271C24.2801 8.37693 24.0732 8.51502 23.8455 8.60908C23.6177 8.70311 23.3737 8.75125 23.1272 8.75072ZM15.0025 10.0003C15.9915 10.0003 16.9582 10.2935 17.7805 10.843C18.6028 11.3924 19.2436 12.1733 19.6221 13.087C20.0006 14.0007 20.0997 15.006 19.9067 15.976C19.7138 16.9459 19.2375 17.8369 18.5382 18.5361C17.8389 19.2355 16.948 19.7117 15.978 19.9046C15.0081 20.0976 14.0027 19.9986 13.0891 19.6201C12.1754 19.2417 11.3945 18.6008 10.845 17.7784C10.2956 16.9562 10.0023 15.9894 10.0023 15.0005C10.0038 13.6748 10.531 12.4038 11.4684 11.4664C12.4058 10.5289 13.6768 10.0017 15.0025 10.0003ZM15.0025 7.50049C13.5192 7.50049 12.0691 7.94036 10.8358 8.76446C9.60241 9.58858 8.64112 10.7599 8.07347 12.1304C7.50581 13.5008 7.35729 15.0088 7.64668 16.4637C7.93606 17.9186 8.65037 19.255 9.69927 20.3038C10.7481 21.3527 12.0845 22.067 13.5394 22.3563C14.9942 22.6458 16.5022 22.4973 17.8727 21.9295C19.2431 21.362 20.4144 20.4006 21.2385 19.1673C22.0626 17.9339 22.5026 16.4839 22.5026 15.0005C22.5026 13.0114 21.7124 11.1037 20.3058 9.69719C18.8993 8.29066 16.9917 7.50049 15.0025 7.50049Z" fill="white"/>
</svg>
