<svg width="52" height="49" viewBox="0 0 52 49" fill="none" xmlns="http://www.w3.org/2000/svg">
<rect x="0.5" y="0.5" width="51" height="48" rx="24" fill="#0E4F4F"/>
<rect x="0.5" y="0.5" width="51" height="48" rx="24" stroke="#0E4F4F"/>
<path d="M12.6163 34.197C13.0111 34.7111 13.5464 35 14.1046 35C14.6628 35 15.1981 34.7111 15.5928 34.197L26.0127 20.6204L36.4326 34.197C36.8296 34.6966 37.3613 34.973 37.9133 34.9668C38.4652 34.9605 38.9932 34.6721 39.3835 34.1636C39.7737 33.655 39.9951 32.9671 39.9999 32.248C40.0047 31.5288 39.7925 30.836 39.4091 30.3187L27.501 14.803C27.1062 14.2889 26.5709 14 26.0127 14C25.4545 14 24.9192 14.2889 24.5245 14.803L12.6163 30.3187C12.2217 30.8331 12 31.5306 12 32.2578C12 32.9851 12.2217 33.6826 12.6163 34.197Z" fill="white"/>
</svg>
