<svg width="112" height="125" viewBox="0 0 112 125" fill="none" xmlns="http://www.w3.org/2000/svg">
<path d="M56 0C58.1019 0 60.1739 0.125077 62.216 0.375231C62.947 0.464089 63.6549 0.710229 64.2993 1.0996C64.9437 1.48897 65.5119 2.01395 65.9716 2.64456C66.4313 3.27516 66.7734 3.99905 66.9784 4.77489C67.1834 5.55073 67.2473 6.36332 67.1664 7.16628C67.0855 7.96923 66.8614 8.74682 66.507 9.45465C66.1525 10.1625 65.6745 10.7867 65.1005 11.2916C64.5264 11.7966 63.8674 12.1724 63.1611 12.3975C62.4548 12.6227 61.715 12.6929 60.984 12.604C51.7555 11.47 42.4341 13.5141 34.3094 18.4535C26.1846 23.3929 19.658 30.9835 15.6322 40.1754C11.6064 49.3673 10.2805 59.7063 11.8378 69.7621C13.3951 79.818 17.7587 89.0938 24.3249 96.3065C30.8912 103.519 39.3357 108.312 48.4903 110.023C57.6449 111.734 67.0572 110.277 75.4253 105.855C83.7934 101.433 90.7037 94.2637 95.2004 85.3391C99.6971 76.4145 101.558 66.1755 100.526 56.0384C100.445 55.2355 100.509 54.4229 100.714 53.647C100.919 52.8712 101.261 52.1473 101.72 51.5167C102.649 50.2431 104 49.4268 105.476 49.2474C106.952 49.0679 108.433 49.54 109.592 50.5598C110.167 51.0647 110.644 51.6889 110.999 52.3968C111.353 53.1046 111.577 53.8822 111.658 54.6851C111.882 56.9283 111.996 59.2043 112 61.5131C112 95.4868 86.9288 123.026 56 123.026C25.0712 123.026 0 95.4868 0 61.5131C0 27.5394 25.0712 0 56 0ZM55.8208 36.1512C56.1899 37.7304 55.9731 39.406 55.2181 40.8097C54.4631 42.2134 53.2317 43.2305 51.7944 43.6374C47.8457 44.7736 44.4082 47.4492 42.1234 51.1648C39.8386 54.8804 38.8626 59.3823 39.3775 63.8303C39.8924 68.2783 41.8631 72.3685 44.9217 75.3378C47.9804 78.3071 51.9181 79.9525 56 79.967C59.7257 79.9687 63.3462 78.61 66.2921 76.1046C69.238 73.5991 71.3422 70.0891 72.2736 66.1266C72.6705 64.5786 73.6036 63.263 74.8728 62.4615C76.1421 61.66 77.6466 61.4363 79.0642 61.8385C80.4817 62.2406 81.6995 63.2365 82.4567 64.6129C83.2139 65.9893 83.4503 67.6367 83.1152 69.2022C81.3973 76.4357 77.3407 82.7349 71.7033 86.9228C66.0658 91.1107 59.2332 92.9009 52.4819 91.959C45.7305 91.0171 39.5222 87.4076 35.0168 81.8046C30.5115 76.2017 28.0172 68.9887 28 61.5131C27.999 54.6937 30.0614 48.0673 33.8627 42.6758C37.6641 37.2842 42.9889 33.4333 49 31.7285C49.7122 31.5268 50.4537 31.4813 51.1819 31.5944C51.9102 31.7075 52.611 31.9772 53.2444 32.3879C53.8778 32.7986 54.4314 33.3423 54.8734 33.9881C55.3155 34.6338 55.6374 35.3688 55.8208 36.1512ZM92.4224 0.781217C93.4446 1.24674 94.3183 2.03447 94.9332 3.04496C95.5481 4.05545 95.8768 5.2434 95.8776 6.45887V17.7158H106.12C107.227 17.716 108.31 18.0769 109.231 18.7529C110.151 19.4288 110.869 20.3894 111.293 21.5133C111.716 22.6371 111.827 23.8737 111.611 25.0668C111.395 26.2598 110.862 27.3558 110.079 28.2161L90.272 49.9486C89.222 51.1023 87.7979 51.7506 86.3128 51.751H72.8L62.5632 63.0017C61.5124 64.1559 60.0872 64.8044 58.6012 64.8044C57.1152 64.8044 55.69 64.1559 54.6392 63.0017C53.5884 61.8475 52.9981 60.282 52.9981 58.6497C52.9981 57.0173 53.5884 55.4518 54.6392 54.2976L64.8816 43.0592V28.2099C64.8819 26.5786 65.4721 25.0143 66.5224 23.8609L86.3184 2.1099C87.1015 1.24913 88.0995 0.662855 89.186 0.425248C90.2726 0.187642 91.3989 0.309381 92.4224 0.775065M84.6776 21.302L76.0816 30.7565V39.4545H84L92.6016 30.0122H90.2776C88.7924 30.0122 87.368 29.3642 86.3178 28.2106C85.2676 27.057 84.6776 25.4924 84.6776 23.8609V21.302Z" fill="#1E1E1E"/>
</svg>
