<svg width="130" height="125" viewBox="0 0 130 125" fill="none" xmlns="http://www.w3.org/2000/svg">
<path d="M129.354 36.0916L111.59 3.4734C110.554 1.57077 107.874 0.0154894 105.64 0.0154894H64.7542C64.7096 0.0136599 64.6649 0.00207338 64.6204 0C64.5838 0 64.5492 0.0137819 64.5125 0.0156113H24.3598C22.1246 0.0156113 19.4383 1.56699 18.3877 3.46181L0.670542 35.4514C-0.382172 37.3462 -0.170715 40.3223 1.13168 42.0688L62.0943 123.681C62.7487 124.557 63.6183 125 64.486 125C65.3477 125 66.2112 124.569 66.8696 123.708L128.834 42.6932C130.153 40.9622 130.391 37.9923 129.354 36.0916ZM119.657 35.135H97.8821L106.602 11.156L119.657 35.135ZM73.0447 7.82104H99.2029L91.0891 30.1316L73.0447 7.82104ZM84.8425 35.135H47.041L64.9065 10.4867L84.8425 35.135ZM39.8395 31.4098L31.6889 7.82104H56.9388L39.8395 31.4098ZM86.4316 42.9407L64.5833 103.013L43.8242 42.9407H86.4316ZM55.4656 101.417L11.7853 42.9407H35.2592L55.4656 101.417ZM95.0412 42.9407H118.558L73.7294 101.552L95.0412 42.9407ZM23.9124 10.1061L32.5607 35.135H10.05L23.9124 10.1061Z" fill="black"/>
</svg>
