<svg width="122" height="125" viewBox="0 0 122 125" fill="none" xmlns="http://www.w3.org/2000/svg">
<path d="M20.9709 0L14.8361 6.60888L23.9643 16.4517L30.0904 9.84282L20.9709 0ZM101.033 0L91.9052 9.84282L98.0357 16.4517L107.16 6.61358L101.033 0ZM61 2.9331C59.5621 2.94564 58.1098 3.04592 56.6429 3.23393H56.5121C38.8396 5.41966 24.7747 20.8231 22.3304 39.8037C20.3784 55.0803 26.2169 68.9326 35.9464 77.8541C39.9257 81.5189 42.6176 86.5468 43.5714 92.0966V120.3H53.5057C55.022 123.106 57.7888 125 61 125C64.2112 125 66.978 123.106 68.4943 120.3H78.4286V101.498H78.8381V95.9134C78.8381 89.0225 82.1583 82.0752 87.5524 76.6743C94.7679 68.8809 100.214 57.8113 100.214 45.0965C100.214 21.8761 82.4981 2.71688 61 2.9331ZM61 12.3341C77.8404 12.0802 91.5 26.9526 91.5 45.0965C91.5 54.9393 87.2736 63.607 81.4219 69.915L81.5614 70.0654C75.7486 75.8523 71.9888 83.6452 70.9299 92.1013H51.8718C50.9132 84.0447 47.7107 76.2466 41.6586 70.653C33.9596 63.6023 29.3715 52.9792 30.9052 40.9835C32.8093 26.177 43.9461 14.2707 57.5927 12.6396C58.7195 12.471 59.8541 12.3706 60.9913 12.3388L61 12.3341ZM0 45.0965V54.4974H13.0714V45.0965H0ZM108.929 45.0965V54.4974H122V45.0965H108.929ZM23.9643 83.1422L14.8404 92.9803L20.9709 99.5939L30.0861 89.7511L23.9643 83.1422ZM98.0357 83.1422L91.9096 89.7511L101.029 99.5939L107.16 92.9803L98.0357 83.1422ZM52.2857 101.502H69.7143V110.903H52.2857V101.502Z" fill="black"/>
</svg>
