<svg width="78" height="78" viewBox="0 0 78 78" fill="none" xmlns="http://www.w3.org/2000/svg">
<rect x="0.5" y="0.5" width="77" height="77" rx="38.5" stroke="url(#paint0_linear_26_110)"/>
<rect x="0.5" y="0.5" width="77" height="77" rx="38.5" stroke="url(#paint1_linear_26_110)"/>
<rect x="10.5" y="10.5" width="57" height="57" rx="28.5" stroke="url(#paint2_linear_26_110)"/>
<rect x="10.5" y="10.5" width="57" height="57" rx="28.5" stroke="url(#paint3_linear_26_110)"/>
<path d="M54 39.0376C54 30.7368 47.28 24 39 24C30.72 24 24 30.7368 24 39.0376C24 46.3158 29.16 52.3759 36 53.7744V43.5489H33V39.0376H36V35.2782C36 32.3759 38.355 30.015 41.25 30.015H45V34.5263H42C41.175 34.5263 40.5 35.203 40.5 36.0301V39.0376H45V43.5489H40.5V54C48.075 53.2481 54 46.8421 54 39.0376Z" fill="white"/>
<defs>
<linearGradient id="paint0_linear_26_110" x1="6.42073" y1="82.2805" x2="81.5671" y2="-5.23171" gradientUnits="userSpaceOnUse">
<stop stop-color="#C9A24D"/>
<stop offset="0.323723" stop-color="#C9A24D" stop-opacity="0"/>
</linearGradient>
<linearGradient id="paint1_linear_26_110" x1="77.7622" y1="-9.9878" x2="6.42073" y2="78" gradientUnits="userSpaceOnUse">
<stop stop-color="#C9A24D"/>
<stop offset="0.576615" stop-color="#C9A24D" stop-opacity="0"/>
</linearGradient>
<linearGradient id="paint2_linear_26_110" x1="3.68548" y1="13.2742" x2="67.7661" y2="68" gradientUnits="userSpaceOnUse">
<stop stop-color="#C9A24D"/>
<stop offset="0.323723" stop-color="#C9A24D" stop-opacity="0"/>
</linearGradient>
<linearGradient id="paint3_linear_26_110" x1="79.4597" y1="81.0968" x2="12.1048" y2="33.3871" gradientUnits="userSpaceOnUse">
<stop stop-color="#C9A24D"/>
<stop offset="0.576615" stop-color="#C9A24D" stop-opacity="0"/>
</linearGradient>
</defs>
</svg>
