<svg width="78" height="78" viewBox="0 0 78 78" fill="none" xmlns="http://www.w3.org/2000/svg">
<rect x="0.5" y="0.5" width="77" height="77" rx="38.5" stroke="url(#paint0_linear_26_133)"/>
<rect x="0.5" y="0.5" width="77" height="77" rx="38.5" stroke="url(#paint1_linear_26_133)"/>
<rect x="10.5" y="10.5" width="57" height="57" rx="28.5" stroke="url(#paint2_linear_26_133)"/>
<rect x="10.5" y="10.5" width="57" height="57" rx="28.5" stroke="url(#paint3_linear_26_133)"/>
<path d="M45.2498 26.4998C46.9059 26.5047 48.493 27.1648 49.664 28.336C50.8351 29.5071 51.4953 31.094 51.5002 32.7502V45.2498C51.4953 46.906 50.8351 48.493 49.664 49.664C48.493 50.8352 46.9059 51.4952 45.2498 51.5003H32.7502C31.094 51.4952 29.5071 50.8352 28.336 49.664C27.1648 48.493 26.5047 46.906 26.4998 45.2498V32.7502C26.5047 31.094 27.1648 29.5071 28.336 28.336C29.5071 27.1648 31.094 26.5047 32.7502 26.4998H45.2498ZM45.2498 24H32.7502C27.9375 24 24 27.9375 24 32.7502V45.2498C24 50.0625 27.9375 54 32.7502 54H45.2498C50.0625 54 54 50.0625 54 45.2498V32.7502C54 27.9375 50.0625 24 45.2498 24Z" fill="white"/>
<path d="M47.1276 32.7507C46.7568 32.7507 46.3943 32.6408 46.086 32.4347C45.7777 32.2287 45.5374 31.9359 45.3953 31.5933C45.2535 31.2506 45.2164 30.8737 45.2888 30.5099C45.3611 30.1462 45.5396 29.8121 45.8019 29.5499C46.064 29.2877 46.3981 29.1091 46.7619 29.0368C47.1257 28.9644 47.5026 29.0015 47.8453 29.1435C48.1878 29.2854 48.4807 29.5257 48.6868 29.834C48.8927 30.1424 49.0026 30.5049 49.0026 30.8757C49.0031 31.1221 48.955 31.3662 48.8611 31.5939C48.767 31.8216 48.6288 32.0285 48.4547 32.2027C48.2805 32.3769 48.0735 32.515 47.8458 32.6091C47.6181 32.7031 47.3741 32.7513 47.1276 32.7507ZM39.0029 34.0003C39.9919 34.0003 40.9586 34.2935 41.7808 34.843C42.6032 35.3924 43.244 36.1733 43.6225 37.087C44.001 38.0007 44.1 39.006 43.9071 39.976C43.7141 40.946 43.2378 41.8369 42.5386 42.5361C41.8393 43.2355 40.9483 43.7117 39.9784 43.9046C39.0085 44.0976 38.0031 43.9986 37.0894 43.6202C36.1757 43.2417 35.3948 42.6008 34.8454 41.7784C34.296 40.9562 34.0027 39.9894 34.0027 39.0005C34.0041 37.6748 34.5314 36.4038 35.4688 35.4664C36.4062 34.529 37.6772 34.0017 39.0029 34.0003ZM39.0029 31.5005C37.5195 31.5005 36.0695 31.9404 34.8362 32.7645C33.6028 33.5886 32.6415 34.7599 32.0738 36.1304C31.5062 37.5008 31.3577 39.0088 31.647 40.4637C31.9364 41.9186 32.6507 43.255 33.6996 44.3038C34.7485 45.3527 36.0849 46.067 37.5397 46.3563C38.9946 46.6459 40.5026 46.4973 41.873 45.9295C43.2435 45.362 44.4148 44.4006 45.2389 43.1673C46.063 41.9339 46.5029 40.4839 46.5029 39.0005C46.5029 37.0114 45.7127 35.1037 44.3061 33.6972C42.8997 32.2907 40.992 31.5005 39.0029 31.5005Z" fill="white"/>
<defs>
<linearGradient id="paint0_linear_26_133" x1="6.42073" y1="82.2805" x2="81.5671" y2="-5.23171" gradientUnits="userSpaceOnUse">
<stop stop-color="#C9A24D"/>
<stop offset="0.323723" stop-color="#C9A24D" stop-opacity="0"/>
</linearGradient>
<linearGradient id="paint1_linear_26_133" x1="77.7622" y1="-9.9878" x2="6.42073" y2="78" gradientUnits="userSpaceOnUse">
<stop stop-color="#C9A24D"/>
<stop offset="0.576615" stop-color="#C9A24D" stop-opacity="0"/>
</linearGradient>
<linearGradient id="paint2_linear_26_133" x1="3.68548" y1="13.2742" x2="67.7661" y2="68" gradientUnits="userSpaceOnUse">
<stop stop-color="#C9A24D"/>
<stop offset="0.323723" stop-color="#C9A24D" stop-opacity="0"/>
</linearGradient>
<linearGradient id="paint3_linear_26_133" x1="79.4597" y1="81.0968" x2="12.1048" y2="33.3871" gradientUnits="userSpaceOnUse">
<stop stop-color="#C9A24D"/>
<stop offset="0.576615" stop-color="#C9A24D" stop-opacity="0"/>
</linearGradient>
</defs>
</svg>
