<svg width="78" height="78" viewBox="0 0 78 78" fill="none" xmlns="http://www.w3.org/2000/svg">
<rect x="0.5" y="0.5" width="77" height="77" rx="38.5" stroke="url(#paint0_linear_26_118)"/>
<rect x="0.5" y="0.5" width="77" height="77" rx="38.5" stroke="url(#paint1_linear_26_118)"/>
<rect x="10.5" y="10.5" width="57" height="57" rx="28.5" stroke="url(#paint2_linear_26_118)"/>
<rect x="10.5" y="10.5" width="57" height="57" rx="28.5" stroke="url(#paint3_linear_26_118)"/>
<path d="M49.6281 28.3651C48.2458 26.9762 46.5995 25.875 44.7852 25.1256C42.9708 24.3762 41.0247 23.9936 39.0603 24.0001C30.8291 24.0001 24.1206 30.6751 24.1206 38.865C24.1206 41.49 24.8141 44.04 26.1106 46.29L24 54L31.9146 51.93C34.1005 53.115 36.5578 53.745 39.0603 53.745C47.2915 53.745 54 47.07 54 38.88C54 34.9051 52.4472 31.1701 49.6281 28.3651ZM39.0603 51.225C36.8291 51.225 34.6432 50.625 32.7286 49.5L32.2764 49.23L27.5729 50.46L28.8241 45.9L28.5226 45.435C27.2827 43.4656 26.6245 41.1889 26.6231 38.865C26.6231 32.0551 32.201 26.5051 39.0452 26.5051C42.3618 26.5051 45.4824 27.7951 47.8191 30.1351C48.9763 31.2809 49.8933 32.6439 50.517 34.145C51.1407 35.6462 51.4586 37.2557 51.4523 38.88C51.4824 45.69 45.9045 51.225 39.0603 51.225ZM45.8744 41.985C45.4975 41.805 43.6583 40.905 43.3266 40.77C42.9799 40.65 42.7387 40.59 42.4824 40.95C42.2261 41.325 41.5176 42.165 41.3065 42.405C41.0955 42.66 40.8693 42.69 40.4925 42.495C40.1156 42.315 38.9095 41.91 37.4925 40.65C36.3769 39.66 35.6382 38.445 35.4121 38.07C35.201 37.695 35.3819 37.5 35.5779 37.305C35.7437 37.14 35.9548 36.87 36.1357 36.66C36.3166 36.45 36.392 36.285 36.5126 36.045C36.6332 35.79 36.5729 35.5801 36.4824 35.4001C36.392 35.2201 35.6382 33.3901 35.3367 32.6401C35.0352 31.9201 34.7186 32.0101 34.4925 31.9951H33.7688C33.5126 31.9951 33.1206 32.0851 32.7739 32.4601C32.4422 32.8351 31.4774 33.7351 31.4774 35.565C31.4774 37.395 32.8191 39.165 33 39.405C33.1809 39.66 35.6382 43.41 39.3769 45.015C40.2663 45.405 40.9598 45.63 41.5025 45.795C42.392 46.08 43.206 46.035 43.8543 45.945C44.5779 45.84 46.0703 45.045 46.3719 44.175C46.6884 43.305 46.6884 42.57 46.5829 42.405C46.4774 42.24 46.2513 42.165 45.8744 41.985Z" fill="white"/>
<defs>
<linearGradient id="paint0_linear_26_118" x1="6.42073" y1="82.2805" x2="81.5671" y2="-5.23171" gradientUnits="userSpaceOnUse">
<stop stop-color="#C9A24D"/>
<stop offset="0.323723" stop-color="#C9A24D" stop-opacity="0"/>
</linearGradient>
<linearGradient id="paint1_linear_26_118" x1="77.7622" y1="-9.9878" x2="6.42073" y2="78" gradientUnits="userSpaceOnUse">
<stop stop-color="#C9A24D"/>
<stop offset="0.576615" stop-color="#C9A24D" stop-opacity="0"/>
</linearGradient>
<linearGradient id="paint2_linear_26_118" x1="3.68548" y1="13.2742" x2="67.7661" y2="68" gradientUnits="userSpaceOnUse">
<stop stop-color="#C9A24D"/>
<stop offset="0.323723" stop-color="#C9A24D" stop-opacity="0"/>
</linearGradient>
<linearGradient id="paint3_linear_26_118" x1="79.4597" y1="81.0968" x2="12.1048" y2="33.3871" gradientUnits="userSpaceOnUse">
<stop stop-color="#C9A24D"/>
<stop offset="0.576615" stop-color="#C9A24D" stop-opacity="0"/>
</linearGradient>
</defs>
</svg>
