<svg width="24" height="24" viewBox="0 0 24 24" fill="none" xmlns="http://www.w3.org/2000/svg">
<g clip-path="url(#clip0_5_56)">
<path d="M2.26958 15.7616H12.1102V17.5697H18.2616V15.7655H20.7055C20.8638 17.9158 20.8763 19.8304 18.6708 21.2897C18.6439 21.3075 18.6222 21.3318 18.5624 21.385C18.8337 21.6103 19.101 21.8329 19.3657 22.0529C19.0084 22.3945 18.7214 22.669 18.3923 22.9842C18.102 22.6848 17.7881 22.3373 17.4459 22.0207C17.3454 21.9275 17.1674 21.8894 17.0216 21.8802C16.7832 21.8657 16.5415 21.9045 16.3011 21.9052C13.1059 21.9071 9.9106 21.9065 6.71469 21.9065C6.56166 21.9065 6.39812 21.936 6.25691 21.8933C5.83066 21.7653 5.56006 21.9629 5.30654 22.2684C5.09046 22.5284 4.84417 22.7629 4.61889 23.0007C4.3148 22.6808 4.03961 22.3918 3.73486 22.0707C3.93912 21.89 4.19855 21.6602 4.49016 21.4014C4.28919 21.2576 4.13878 21.1577 3.99626 21.0474C2.92833 20.2244 2.35102 19.1329 2.27549 17.7924C2.23805 17.1284 2.26892 16.4604 2.26892 15.7616H2.26958Z" fill="white"/>
<path d="M2.27548 10.7871C2.27023 10.6682 2.26103 10.5612 2.26103 10.4541C2.26038 8.71363 2.25841 6.97381 2.26103 5.23333C2.26366 3.32078 3.59102 1.98619 5.50095 1.99998C6.14197 2.00458 6.80269 1.99145 7.41875 2.13659C8.51164 2.39471 9.19995 3.15264 9.53228 4.22057C9.59665 4.42811 9.68006 4.5286 9.90796 4.59034C11.1939 4.93909 12.0964 6.141 12.1128 7.48216C12.1154 7.69824 12.1128 7.91432 12.1128 8.14879H6.02572C5.73542 6.61389 6.56953 5.02973 8.31329 4.53517C8.15567 3.85014 7.48115 3.27217 6.77314 3.24722C6.23786 3.22817 5.70061 3.2262 5.16533 3.24722C4.24255 3.28334 3.50038 4.13059 3.49644 5.14663C3.48987 6.89762 3.49447 8.64926 3.49447 10.4002C3.49447 10.5198 3.49447 10.6393 3.49447 10.7864H2.27417L2.27548 10.7871Z" fill="white"/>
<path d="M12.0931 14.5328C11.9644 14.5328 11.8678 14.5328 11.7713 14.5328C8.64366 14.5328 5.5154 14.5335 2.38779 14.5321C1.71459 14.5321 1.23054 14.2136 1.06043 13.6698C0.804289 12.8514 1.38423 12.0633 2.26826 12.0515C3.20877 12.039 4.14929 12.0482 5.0898 12.0482C7.29922 12.0482 9.50799 12.0482 11.7174 12.0482C11.8356 12.0482 11.9538 12.0482 12.0931 12.0482V14.5321V14.5328Z" fill="white"/>
<path d="M17.0236 16.3711H13.3633C13.3574 16.2555 13.3475 16.1504 13.3475 16.0453C13.3462 14.7771 13.3462 13.5082 13.3475 12.2399C13.3482 11.3224 13.8493 10.818 14.7629 10.8141C15.1018 10.8128 15.4407 10.8055 15.7796 10.816C16.5408 10.8403 17.038 11.352 17.04 12.1152C17.0439 13.4386 17.0413 14.7613 17.04 16.0848C17.04 16.1708 17.0308 16.2562 17.0236 16.3711Z" fill="white"/>
<path d="M18.2833 14.5209V12.0481C18.8783 12.0481 19.4648 12.0461 20.0507 12.0488C20.3561 12.0501 20.668 12.0251 20.9669 12.0744C21.6191 12.1821 22.0434 12.716 22.0164 13.3393C21.9902 13.9508 21.5389 14.4756 20.8986 14.5091C20.0395 14.5544 19.1765 14.5202 18.2839 14.5202L18.2833 14.5209Z" fill="white"/>
</g>
<defs>
<clipPath id="clip0_5_56">
<rect width="21.0171" height="21" fill="white" transform="translate(1 2)"/>
</clipPath>
</defs>
</svg>
