<svg width="24" height="24" viewBox="0 0 24 24" fill="none" xmlns="http://www.w3.org/2000/svg">
<path fill-rule="evenodd" clip-rule="evenodd" d="M9.02964 4C8.59788 4.00016 8.17383 4.13459 7.80045 4.38965C7.42707 4.64471 7.11763 5.01134 6.90347 5.45241L5.27619 8.80294H4.3266C4.23998 8.80294 4.15691 8.84342 4.09566 8.91548C4.03441 8.98754 4 9.08527 4 9.18718V9.64346C3.99984 9.81499 4.04846 9.98165 4.13813 10.1169C4.2278 10.2522 4.35335 10.3482 4.4948 10.3898L4.5144 10.3946C4.17345 11.2271 4.04389 12.1577 4.14125 13.0747L4.73322 18.647C4.78258 19.1118 4.97454 19.5393 5.273 19.8492C5.57147 20.1591 5.95588 20.3301 6.35397 20.33H6.4495C6.8826 20.33 7.29796 20.1276 7.60421 19.7673C7.91045 19.407 8.0825 18.9184 8.0825 18.4088H16.2475C16.2475 18.9184 16.4195 19.407 16.7258 19.7673C17.032 20.1276 17.4474 20.33 17.8805 20.33H17.976C18.3741 20.3301 18.7585 20.1591 19.057 19.8492C19.3555 19.5393 19.5474 19.1118 19.5968 18.647L20.1887 13.0756C20.2861 12.1587 20.1565 11.2281 19.8156 10.3956L19.8352 10.3898C19.9766 10.3482 20.1022 10.2522 20.1919 10.1169C20.2815 9.98165 20.3302 9.81499 20.33 9.64346V9.18718C20.33 9.13672 20.3216 9.08675 20.3051 9.04014C20.2887 8.99352 20.2647 8.95116 20.2343 8.91548C20.204 8.8798 20.168 8.8515 20.1284 8.83219C20.0888 8.81288 20.0463 8.80294 20.0034 8.80294H19.0538L17.4265 5.45241C17.2124 5.01134 16.9029 4.64471 16.5296 4.38965C16.1562 4.13459 15.7321 4.00016 15.3004 4H9.02964ZM17.4086 9.28708L16.0091 6.40531C15.9376 6.25815 15.8344 6.13585 15.7097 6.05082C15.5851 5.96579 15.4436 5.92106 15.2995 5.92118H9.03046C8.8864 5.92106 8.74488 5.96579 8.62026 6.05082C8.49565 6.13585 8.39237 6.25815 8.32092 6.40531L6.92144 9.28708C6.85052 9.43314 6.81344 9.59856 6.81393 9.76678C6.81441 9.93499 6.85243 10.1001 6.92419 10.2456C6.99595 10.3911 7.09892 10.5119 7.22282 10.5959C7.34671 10.6798 7.48717 10.7241 7.63016 10.7241H16.6998C16.8428 10.7241 16.9833 10.6798 17.1072 10.5959C17.2311 10.5119 17.3341 10.3911 17.4058 10.2456C17.4776 10.1001 17.5156 9.93499 17.5161 9.76678C17.5166 9.59856 17.4795 9.43314 17.4086 9.28708ZM6.4495 14.6039V13.9315C6.44946 13.8483 6.4678 13.7665 6.50272 13.6941C6.53763 13.6218 6.58793 13.5613 6.64869 13.5187C6.70944 13.4761 6.77856 13.4528 6.84927 13.4511C6.91999 13.4493 6.98987 13.4693 7.05208 13.5089L9.29092 14.9305C9.59547 15.1246 9.46892 15.6692 9.12272 15.6529L7.23334 15.5636C7.02278 15.5536 6.82364 15.4483 6.67755 15.2697C6.53147 15.091 6.44975 14.8518 6.4495 14.6039ZM17.8805 13.9315V14.6039C17.8807 14.8522 17.7991 15.0909 17.653 15.2699C17.5069 15.449 17.3075 15.5546 17.0967 15.5645L15.2073 15.6529C14.8611 15.6692 14.7337 15.1246 15.0391 14.9305L17.2779 13.5089C17.3401 13.4693 17.41 13.4493 17.4807 13.4511C17.5514 13.4528 17.6206 13.4761 17.6813 13.5187C17.7421 13.5613 17.7924 13.6218 17.8273 13.6941C17.8622 13.7665 17.8805 13.8483 17.8805 13.9315Z" fill="white"/>
</svg>
