<svg width="14" height="18" viewBox="0 0 14 18" fill="none" xmlns="http://www.w3.org/2000/svg">
<path d="M6.60003 10.8003C8.41996 10.8003 9.89999 9.18567 9.89999 7.20021C9.89999 5.21475 8.41996 3.6001 6.60003 3.6001C4.7801 3.6001 3.30006 5.21475 3.30006 7.20021C3.30006 9.18567 4.7801 10.8003 6.60003 10.8003ZM6.60003 5.40015C7.50999 5.40015 8.25001 6.20748 8.25001 7.20021C8.25001 8.19294 7.50999 9.00026 6.60003 9.00026C5.69006 9.00026 4.95005 8.19294 4.95005 7.20021C4.95005 6.20748 5.69006 5.40015 6.60003 5.40015Z" fill="white"/>
<path d="M6.12151 17.8331C6.26123 17.9417 6.42848 18 6.6 18C6.77152 18 6.93877 17.9417 7.07849 17.8331C7.32929 17.6396 13.2239 12.9964 13.1999 7.20022C13.1999 3.2302 10.239 0 6.6 0C2.96097 0 7.26303e-05 3.2302 7.26303e-05 7.19572C-0.0238521 12.9964 5.87071 17.6396 6.12151 17.8331ZM6.6 1.80006C9.32989 1.80006 11.5499 4.22203 11.5499 7.20472C11.5673 11.199 7.92989 14.7857 6.6 15.962C5.27094 14.7848 1.63273 11.1972 1.65005 7.20022C1.65005 4.22203 3.8701 1.80006 6.6 1.80006Z" fill="white"/>
</svg>
